<?xml version="1.0" encoding="UTF-8" standalone="no"?>
<!DOCTYPE svg PUBLIC "-//W3C//DTD SVG 1.1//EN"
 "http://www.w3.org/Graphics/SVG/1.1/DTD/svg11.dtd">
<!-- Generated by graphviz version 2.42.4 (0)
 -->
<!-- Title: G Pages: 1 -->
<svg width="2907pt" height="854pt"
 viewBox="0.00 0.00 2907.00 853.50" xmlns="http://www.w3.org/2000/svg" xmlns:xlink="http://www.w3.org/1999/xlink">
<g id="graph0" class="graph" transform="scale(1 1) rotate(0) translate(18 835.5)">
<title>G</title>
<polygon fill="white" stroke="transparent" points="-18,18 -18,-835.5 2889,-835.5 2889,18 -18,18"/>
<text text-anchor="middle" x="1435.5" y="-794.3" font-family="Helvetica,sans-Serif" font-size="24.00">Final_Utl System Design UML Diagram</text>
<!-- PythonScraper -->
<g id="node1" class="node">
<title>PythonScraper</title>
<polygon fill="#bee3f8" stroke="transparent" points="1.5,-667 1.5,-694 262.5,-694 262.5,-667 1.5,-667"/>
<text text-anchor="start" x="73.5" y="-677.8" font-family="Helvetica,sans-Serif" font-weight="bold" font-size="14.00">PythonScraper</text>
<text text-anchor="start" x="52" y="-649.8" font-family="Helvetica,sans-Serif" font-size="14.00">+ prompt_credentials()</text>
<text text-anchor="start" x="7.5" y="-634.8" font-family="Helvetica,sans-Serif" font-size="14.00">+ login(page, username, password)</text>
<text text-anchor="start" x="59" y="-619.8" font-family="Helvetica,sans-Serif" font-size="14.00">+ openHistory(page)</text>
<text text-anchor="start" x="62.5" y="-604.8" font-family="Helvetica,sans-Serif" font-size="14.00">+ getBalance(page)</text>
<text text-anchor="start" x="60.5" y="-589.8" font-family="Helvetica,sans-Serif" font-size="14.00">+ getTimeline(page)</text>
<text text-anchor="start" x="101" y="-574.8" font-family="Helvetica,sans-Serif" font-size="14.00">+ main()</text>
<polygon fill="none" stroke="#2b6cb0" points="0,-564.5 0,-695.5 263,-695.5 263,-564.5 0,-564.5"/>
</g>
<!-- RawHistoryJson -->
<g id="node2" class="node">
<title>RawHistoryJson</title>
<polygon fill="#edf2f7" stroke="transparent" points="431,-660 431,-687 567,-687 567,-660 431,-660"/>
<text text-anchor="start" x="437" y="-670.8" font-family="Helvetica,sans-Serif" font-weight="bold" font-size="14.00">RawHistoryJson</text>
<text text-anchor="start" x="459" y="-642.8" font-family="Helvetica,sans-Serif" font-size="14.00">+ balances</text>
<text text-anchor="start" x="437" y="-627.8" font-family="Helvetica,sans-Serif" font-size="14.00">+ timelineHeader</text>
<text text-anchor="start" x="446" y="-612.8" font-family="Helvetica,sans-Serif" font-size="14.00">+ timelineData</text>
<text text-anchor="start" x="457.5" y="-597.8" font-family="Helvetica,sans-Serif" font-size="14.00">+ fromDate</text>
<text text-anchor="start" x="467" y="-582.8" font-family="Helvetica,sans-Serif" font-size="14.00">+ toDate</text>
<polygon fill="none" stroke="#718096" points="430,-572 430,-688 568,-688 568,-572 430,-572"/>
</g>
<!-- PythonScraper&#45;&gt;RawHistoryJson -->
<g id="edge1" class="edge">
<title>PythonScraper&#45;&gt;RawHistoryJson</title>
<path fill="none" stroke="#4a5568" d="M263.14,-630C263.14,-630 421.81,-630 421.81,-630"/>
<polygon fill="#4a5568" stroke="#4a5568" points="421.81,-632.8 429.81,-630 421.81,-627.2 421.81,-632.8"/>
<text text-anchor="middle" x="346.5" y="-633" font-family="Helvetica,sans-Serif" font-size="10.00">writes rawHistory.json</text>
</g>
<!-- CppAnalyzer -->
<g id="node3" class="node">
<title>CppAnalyzer</title>
<polygon fill="#c6f6d5" stroke="transparent" points="652.5,-667 652.5,-694 925.5,-694 925.5,-667 652.5,-667"/>
<text text-anchor="start" x="739.5" y="-677.8" font-family="Helvetica,sans-Serif" font-weight="bold" font-size="14.00">CppAnalyzer</text>
<text text-anchor="start" x="682.5" y="-649.8" font-family="Helvetica,sans-Serif" font-size="14.00">+ parse_money(string) double</text>
<text text-anchor="start" x="692.5" y="-634.8" font-family="Helvetica,sans-Serif" font-size="14.00">+ parse_shop(string) string</text>
<text text-anchor="start" x="680.5" y="-619.8" font-family="Helvetica,sans-Serif" font-size="14.00">+ days_between(start, end) int</text>
<text text-anchor="start" x="658.5" y="-604.8" font-family="Helvetica,sans-Serif" font-size="14.00">+ classify(deviation, tolerance) string</text>
<text text-anchor="start" x="705" y="-589.8" font-family="Helvetica,sans-Serif" font-size="14.00">+ load_input_json() json</text>
<text text-anchor="start" x="758" y="-574.8" font-family="Helvetica,sans-Serif" font-size="14.00">+ main()</text>
<polygon fill="none" stroke="#2f855a" points="651,-564.5 651,-695.5 926,-695.5 926,-564.5 651,-564.5"/>
</g>
<!-- RawHistoryJson&#45;&gt;CppAnalyzer -->
<g id="edge2" class="edge">
<title>RawHistoryJson&#45;&gt;CppAnalyzer</title>
<path fill="none" stroke="#4a5568" d="M568.34,-630C568.34,-630 642.72,-630 642.72,-630"/>
<polygon fill="#4a5568" stroke="#4a5568" points="642.72,-632.8 650.72,-630 642.72,-627.2 642.72,-632.8"/>
<text text-anchor="middle" x="609.5" y="-633" font-family="Helvetica,sans-Serif" font-size="10.00">input</text>
</g>
<!-- HistoryJson -->
<g id="node4" class="node">
<title>HistoryJson</title>
<polygon fill="#edf2f7" stroke="transparent" points="1123,-733 1123,-760 1258,-760 1258,-733 1123,-733"/>
<text text-anchor="start" x="1145" y="-743.8" font-family="Helvetica,sans-Serif" font-weight="bold" font-size="14.00">HistoryJson</text>
<text text-anchor="start" x="1151" y="-715.8" font-family="Helvetica,sans-Serif" font-size="14.00">+ balances</text>
<text text-anchor="start" x="1129" y="-700.8" font-family="Helvetica,sans-Serif" font-size="14.00">+ timelineHeader</text>
<text text-anchor="start" x="1138" y="-685.8" font-family="Helvetica,sans-Serif" font-size="14.00">+ timelineData</text>
<polygon fill="none" stroke="#718096" points="1121.5,-675 1121.5,-761 1258.5,-761 1258.5,-675 1121.5,-675"/>
</g>
<!-- CppAnalyzer&#45;&gt;HistoryJson -->
<g id="edge3" class="edge">
<title>CppAnalyzer&#45;&gt;HistoryJson</title>
<path fill="none" stroke="#4a5568" d="M926.11,-685.25C926.11,-685.25 1113.32,-685.25 1113.32,-685.25"/>
<polygon fill="#4a5568" stroke="#4a5568" points="1113.32,-688.05 1121.32,-685.25 1113.32,-682.45 1113.32,-688.05"/>
<text text-anchor="middle" x="999.5" y="-692" font-family="Helvetica,sans-Serif" font-size="10.00">writes history.json</text>
</g>
<!-- StatusJson -->
<g id="node5" class="node">
<title>StatusJson</title>
<polygon fill="#edf2f7" stroke="transparent" points="1074,-604 1074,-631 1306,-631 1306,-604 1074,-604"/>
<text text-anchor="start" x="1147.5" y="-614.8" font-family="Helvetica,sans-Serif" font-weight="bold" font-size="14.00">StatusJson</text>
<text text-anchor="start" x="1137" y="-586.8" font-family="Helvetica,sans-Serif" font-size="14.00">+ classification</text>
<text text-anchor="start" x="1116" y="-571.8" font-family="Helvetica,sans-Serif" font-size="14.00">+ beginning_balance</text>
<text text-anchor="start" x="1127" y="-556.8" font-family="Helvetica,sans-Serif" font-size="14.00">+ ending_balance</text>
<text text-anchor="start" x="1162" y="-541.8" font-family="Helvetica,sans-Serif" font-size="14.00">+ spent</text>
<text text-anchor="start" x="1126.5" y="-526.8" font-family="Helvetica,sans-Serif" font-size="14.00">+ expected_spent</text>
<text text-anchor="start" x="1119" y="-511.8" font-family="Helvetica,sans-Serif" font-size="14.00">+ expected_balance</text>
<text text-anchor="start" x="1130.5" y="-496.8" font-family="Helvetica,sans-Serif" font-size="14.00">+ deviation_ratio</text>
<text text-anchor="start" x="1087.5" y="-481.8" font-family="Helvetica,sans-Serif" font-size="14.00">+ recommended_daily_usage</text>
<text text-anchor="start" x="1080" y="-466.8" font-family="Helvetica,sans-Serif" font-size="14.00">+ recommended_weekly_usage</text>
<polygon fill="none" stroke="#718096" points="1073,-456 1073,-632 1307,-632 1307,-456 1073,-456"/>
</g>
<!-- CppAnalyzer&#45;&gt;StatusJson -->
<g id="edge4" class="edge">
<title>CppAnalyzer&#45;&gt;StatusJson</title>
<path fill="none" stroke="#4a5568" d="M926.11,-598.25C926.11,-598.25 1064.96,-598.25 1064.96,-598.25"/>
<polygon fill="#4a5568" stroke="#4a5568" points="1064.96,-601.05 1072.96,-598.25 1064.96,-595.45 1064.96,-601.05"/>
<text text-anchor="middle" x="999.5" y="-604" font-family="Helvetica,sans-Serif" font-size="10.00">writes status.json</text>
</g>
<!-- DataLoader -->
<g id="node6" class="node">
<title>DataLoader</title>
<polygon fill="#e9d8fd" stroke="transparent" points="1506.5,-577 1506.5,-604 1695.5,-604 1695.5,-577 1506.5,-577"/>
<text text-anchor="start" x="1554.5" y="-587.8" font-family="Helvetica,sans-Serif" font-weight="bold" font-size="14.00">DataLoader</text>
<text text-anchor="start" x="1512.5" y="-559.8" font-family="Helvetica,sans-Serif" font-size="14.00">+ repoRootPath() QString</text>
<text text-anchor="start" x="1519.5" y="-544.8" font-family="Helvetica,sans-Serif" font-size="14.00">+ historyPath() QString</text>
<text text-anchor="start" x="1522" y="-529.8" font-family="Helvetica,sans-Serif" font-size="14.00">+ statusPath() QString</text>
<text text-anchor="start" x="1521" y="-514.8" font-family="Helvetica,sans-Serif" font-size="14.00">+ loadAll() DataBundle</text>
<polygon fill="none" stroke="#805ad5" points="1505,-504.5 1505,-605.5 1696,-605.5 1696,-504.5 1505,-504.5"/>
</g>
<!-- HistoryJson&#45;&gt;DataLoader -->
<g id="edge5" class="edge">
<title>HistoryJson&#45;&gt;DataLoader</title>
<path fill="none" stroke="#4a5568" d="M1258.51,-703.67C1310.83,-703.67 1374,-703.67 1374,-703.67 1374,-703.67 1374,-580.25 1374,-580.25 1374,-580.25 1496.77,-580.25 1496.77,-580.25"/>
<polygon fill="#4a5568" stroke="#4a5568" points="1496.77,-583.05 1504.77,-580.25 1496.77,-577.45 1496.77,-583.05"/>
<text text-anchor="middle" x="1357" y="-638" font-family="Helvetica,sans-Serif" font-size="10.00">reads</text>
</g>
<!-- PythonVisualizer -->
<g id="node16" class="node">
<title>PythonVisualizer</title>
<polygon fill="#bee3f8" stroke="transparent" points="1408.5,-755 1408.5,-782 1793.5,-782 1793.5,-755 1408.5,-755"/>
<text text-anchor="start" x="1534.5" y="-765.8" font-family="Helvetica,sans-Serif" font-weight="bold" font-size="14.00">PythonVisualizer</text>
<text text-anchor="start" x="1486" y="-737.8" font-family="Helvetica,sans-Serif" font-size="14.00">+ load_timeline(path) DataFrame</text>
<text text-anchor="start" x="1414.5" y="-722.8" font-family="Helvetica,sans-Serif" font-size="14.00">+ load_expectation_params(path) ExpectationParams</text>
<text text-anchor="start" x="1503.5" y="-707.8" font-family="Helvetica,sans-Serif" font-size="14.00">+ plot_balance(df, out, exp)</text>
<text text-anchor="start" x="1478.5" y="-692.8" font-family="Helvetica,sans-Serif" font-size="14.00">+ plot_daily_spending(df, out, exp)</text>
<text text-anchor="start" x="1510.5" y="-677.8" font-family="Helvetica,sans-Serif" font-size="14.00">+ plot_shop_stats(df, out)</text>
<text text-anchor="start" x="1570" y="-662.8" font-family="Helvetica,sans-Serif" font-size="14.00">+ main()</text>
<polygon fill="none" stroke="#2b6cb0" points="1407,-652.5 1407,-783.5 1794,-783.5 1794,-652.5 1407,-652.5"/>
</g>
<!-- HistoryJson&#45;&gt;PythonVisualizer -->
<g id="edge21" class="edge">
<title>HistoryJson&#45;&gt;PythonVisualizer</title>
<path fill="none" stroke="#4a5568" d="M1258.71,-732.33C1258.71,-732.33 1398.67,-732.33 1398.67,-732.33"/>
<polygon fill="#4a5568" stroke="#4a5568" points="1398.67,-735.13 1406.67,-732.33 1398.67,-729.53 1398.67,-735.13"/>
<text text-anchor="middle" x="1357" y="-721" font-family="Helvetica,sans-Serif" font-size="10.00">reads</text>
</g>
<!-- StatusJson&#45;&gt;DataLoader -->
<g id="edge6" class="edge">
<title>StatusJson&#45;&gt;DataLoader</title>
<path fill="none" stroke="#4a5568" d="M1307.08,-555C1307.08,-555 1496.7,-555 1496.7,-555"/>
<polygon fill="#4a5568" stroke="#4a5568" points="1496.7,-557.8 1504.7,-555 1496.7,-552.2 1496.7,-557.8"/>
<text text-anchor="middle" x="1357" y="-551" font-family="Helvetica,sans-Serif" font-size="10.00">reads</text>
</g>
<!-- DataBundle -->
<g id="node7" class="node">
<title>DataBundle</title>
<polygon fill="#e9d8fd" stroke="transparent" points="2208,-359 2208,-386 2490,-386 2490,-359 2208,-359"/>
<text text-anchor="start" x="2303" y="-369.8" font-family="Helvetica,sans-Serif" font-weight="bold" font-size="14.00">DataBundle</text>
<text text-anchor="start" x="2214" y="-341.8" font-family="Helvetica,sans-Serif" font-size="14.00">+ transactions: QVector&lt;Transaction&gt;</text>
<text text-anchor="start" x="2292.5" y="-326.8" font-family="Helvetica,sans-Serif" font-size="14.00">+ status: Status</text>
<text text-anchor="start" x="2243.5" y="-311.8" font-family="Helvetica,sans-Serif" font-size="14.00">+ statusFileMtime: QDateTime</text>
<text text-anchor="start" x="2293" y="-296.8" font-family="Helvetica,sans-Serif" font-size="14.00">+ error: QString</text>
<text text-anchor="start" x="2310" y="-281.8" font-family="Helvetica,sans-Serif" font-size="14.00">+ ok() bool</text>
<polygon fill="none" stroke="#805ad5" points="2207,-271 2207,-387 2491,-387 2491,-271 2207,-271"/>
</g>
<!-- DataLoader&#45;&gt;DataBundle -->
<g id="edge7" class="edge">
<title>DataLoader&#45;&gt;DataBundle</title>
<path fill="none" stroke="#4a5568" d="M1696.06,-555C1897.84,-555 2349,-555 2349,-555 2349,-555 2349,-395.2 2349,-395.2"/>
<polygon fill="#4a5568" stroke="#4a5568" points="2351.8,-395.2 2349,-387.2 2346.2,-395.2 2351.8,-395.2"/>
<text text-anchor="middle" x="2000.5" y="-516" font-family="Helvetica,sans-Serif" font-size="10.00">creates</text>
</g>
<!-- Transaction -->
<g id="node8" class="node">
<title>Transaction</title>
<polygon fill="#e9d8fd" stroke="transparent" points="2642,-321 2642,-348 2820,-348 2820,-321 2642,-321"/>
<text text-anchor="start" x="2685" y="-331.8" font-family="Helvetica,sans-Serif" font-weight="bold" font-size="14.00">Transaction</text>
<text text-anchor="start" x="2648" y="-303.8" font-family="Helvetica,sans-Serif" font-size="14.00">+ postDate: QDateTime</text>
<text text-anchor="start" x="2664.5" y="-288.8" font-family="Helvetica,sans-Serif" font-size="14.00">+ location: QString</text>
<text text-anchor="start" x="2667.5" y="-273.8" font-family="Helvetica,sans-Serif" font-size="14.00">+ amount: double</text>
<text text-anchor="start" x="2667.5" y="-258.8" font-family="Helvetica,sans-Serif" font-size="14.00">+ balance: double</text>
<polygon fill="none" stroke="#805ad5" points="2641,-248.5 2641,-349.5 2821,-349.5 2821,-248.5 2641,-248.5"/>
</g>
<!-- DataBundle&#45;&gt;Transaction -->
<g id="edge8" class="edge">
<title>DataBundle&#45;&gt;Transaction</title>
<path fill="none" stroke="#4a5568" d="M2491.24,-323.33C2491.24,-323.33 2631.14,-323.33 2631.14,-323.33"/>
<polygon fill="#4a5568" stroke="#4a5568" points="2631.14,-323.33 2635.94,-320.13 2640.74,-323.33 2635.94,-326.53 2631.14,-323.33"/>
<text text-anchor="middle" x="2541" y="-317" font-family="Helvetica,sans-Serif" font-size="10.00">contains</text>
</g>
<!-- Status -->
<g id="node9" class="node">
<title>Status</title>
<polygon fill="#e9d8fd" stroke="transparent" points="2592,-148 2592,-175 2870,-175 2870,-148 2592,-148"/>
<text text-anchor="start" x="2705" y="-158.8" font-family="Helvetica,sans-Serif" font-weight="bold" font-size="14.00">Status</text>
<text text-anchor="start" x="2646.5" y="-130.8" font-family="Helvetica,sans-Serif" font-size="14.00">+ classification: QString</text>
<text text-anchor="start" x="2632" y="-115.8" font-family="Helvetica,sans-Serif" font-size="14.00">+ beginningBalance: double</text>
<text text-anchor="start" x="2643" y="-100.8" font-family="Helvetica,sans-Serif" font-size="14.00">+ endingBalance: double</text>
<text text-anchor="start" x="2675" y="-85.8" font-family="Helvetica,sans-Serif" font-size="14.00">+ spent: double</text>
<text text-anchor="start" x="2642" y="-70.8" font-family="Helvetica,sans-Serif" font-size="14.00">+ expectedSpent: double</text>
<text text-anchor="start" x="2635" y="-55.8" font-family="Helvetica,sans-Serif" font-size="14.00">+ expectedBalance: double</text>
<text text-anchor="start" x="2645" y="-40.8" font-family="Helvetica,sans-Serif" font-size="14.00">+ deviationRatio: double</text>
<text text-anchor="start" x="2605.5" y="-25.8" font-family="Helvetica,sans-Serif" font-size="14.00">+ recommendedDailyUsage: double</text>
<text text-anchor="start" x="2598" y="-10.8" font-family="Helvetica,sans-Serif" font-size="14.00">+ recommendedWeeklyUsage: double</text>
<polygon fill="none" stroke="#805ad5" points="2591,0 2591,-176 2871,-176 2871,0 2591,0"/>
</g>
<!-- DataBundle&#45;&gt;Status -->
<g id="edge9" class="edge">
<title>DataBundle&#45;&gt;Status</title>
<path fill="none" stroke="#4a5568" d="M2491.1,-297.17C2554.86,-297.17 2616,-297.17 2616,-297.17 2616,-297.17 2616,-185.7 2616,-185.7"/>
<polygon fill="#4a5568" stroke="#4a5568" points="2616,-185.7 2612.8,-180.9 2616,-176.1 2619.2,-180.9 2616,-185.7"/>
<text text-anchor="middle" x="2541" y="-256" font-family="Helvetica,sans-Serif" font-size="10.00">contains</text>
</g>
<!-- MainWindow -->
<g id="node10" class="node">
<title>MainWindow</title>
<polygon fill="#faf089" stroke="transparent" points="1093,-338 1093,-365 1287,-365 1287,-338 1093,-338"/>
<text text-anchor="start" x="1139.5" y="-348.8" font-family="Helvetica,sans-Serif" font-weight="bold" font-size="14.00">MainWindow</text>
<text text-anchor="start" x="1099" y="-320.8" font-family="Helvetica,sans-Serif" font-size="14.00">+ MainWindow(QWidget*)</text>
<text text-anchor="start" x="1155" y="-305.8" font-family="Helvetica,sans-Serif" font-size="14.00">&#45; buildUi()</text>
<text text-anchor="start" x="1145.5" y="-290.8" font-family="Helvetica,sans-Serif" font-size="14.00">&#45; setupTray()</text>
<text text-anchor="start" x="1104" y="-275.8" font-family="Helvetica,sans-Serif" font-size="14.00">&#45; applyData(DataBundle)</text>
<text text-anchor="start" x="1101.5" y="-260.8" font-family="Helvetica,sans-Serif" font-size="14.00">&#45; showErrorPane(QString)</text>
<text text-anchor="start" x="1113.5" y="-245.8" font-family="Helvetica,sans-Serif" font-size="14.00">&#45; maybeNotify(Status)</text>
<text text-anchor="start" x="1144.5" y="-230.8" font-family="Helvetica,sans-Serif" font-size="14.00">&#45; onRefresh()</text>
<text text-anchor="start" x="1133.5" y="-215.8" font-family="Helvetica,sans-Serif" font-size="14.00">&#45; onRunScrape()</text>
<polygon fill="none" stroke="#d69e2e" points="1092,-205.5 1092,-366.5 1288,-366.5 1288,-205.5 1092,-205.5"/>
</g>
<!-- MainWindow&#45;&gt;DataLoader -->
<g id="edge10" class="edge">
<title>MainWindow&#45;&gt;DataLoader</title>
<path fill="none" stroke="#4a5568" d="M1288.19,-343.33C1317.03,-343.33 1341,-343.33 1341,-343.33 1341,-343.33 1341,-529.75 1341,-529.75 1341,-529.75 1496.98,-529.75 1496.98,-529.75"/>
<polygon fill="#4a5568" stroke="#4a5568" points="1496.98,-532.55 1504.98,-529.75 1496.98,-526.95 1496.98,-532.55"/>
<text text-anchor="middle" x="1357" y="-484" font-family="Helvetica,sans-Serif" font-size="10.00">loadAll()</text>
</g>
<!-- StatusBanner -->
<g id="node11" class="node">
<title>StatusBanner</title>
<polygon fill="#faf089" stroke="transparent" points="1926.5,-66 1926.5,-93 2075.5,-93 2075.5,-66 1926.5,-66"/>
<text text-anchor="start" x="1947" y="-76.8" font-family="Helvetica,sans-Serif" font-weight="bold" font-size="14.00">StatusBanner</text>
<text text-anchor="start" x="1932.5" y="-48.8" font-family="Helvetica,sans-Serif" font-size="14.00">+ setStatus(Status)</text>
<polygon fill="none" stroke="#d69e2e" points="1925,-38 1925,-94 2076,-94 2076,-38 1925,-38"/>
</g>
<!-- MainWindow&#45;&gt;StatusBanner -->
<g id="edge11" class="edge">
<title>MainWindow&#45;&gt;StatusBanner</title>
<path fill="none" stroke="#4a5568" d="M1158,-205.33C1158,-142.54 1158,-66 1158,-66 1158,-66 1915.39,-66 1915.39,-66"/>
<polygon fill="#4a5568" stroke="#4a5568" points="1915.39,-66 1920.19,-62.8 1924.99,-66 1920.19,-69.2 1915.39,-66"/>
<text text-anchor="middle" x="1357" y="-58" font-family="Helvetica,sans-Serif" font-size="10.00">owns</text>
</g>
<!-- OverviewTab -->
<g id="node12" class="node">
<title>OverviewTab</title>
<polygon fill="#faf089" stroke="transparent" points="1513.5,-433 1513.5,-460 1687.5,-460 1687.5,-433 1513.5,-433"/>
<text text-anchor="start" x="1550" y="-443.8" font-family="Helvetica,sans-Serif" font-weight="bold" font-size="14.00">OverviewTab</text>
<text text-anchor="start" x="1519.5" y="-415.8" font-family="Helvetica,sans-Serif" font-size="14.00">+ setData(DataBundle)</text>
<polygon fill="none" stroke="#d69e2e" points="1512.5,-405 1512.5,-461 1688.5,-461 1688.5,-405 1512.5,-405"/>
</g>
<!-- MainWindow&#45;&gt;OverviewTab -->
<g id="edge12" class="edge">
<title>MainWindow&#45;&gt;OverviewTab</title>
<path fill="none" stroke="#4a5568" d="M1190,-366.7C1190,-399.8 1190,-430.5 1190,-430.5 1190,-430.5 1502.84,-430.5 1502.84,-430.5"/>
<polygon fill="#4a5568" stroke="#4a5568" points="1502.84,-430.5 1507.64,-427.3 1512.44,-430.5 1507.64,-433.7 1502.84,-430.5"/>
<text text-anchor="middle" x="1357" y="-416" font-family="Helvetica,sans-Serif" font-size="10.00">owns</text>
</g>
<!-- ChartsTab -->
<g id="node13" class="node">
<title>ChartsTab</title>
<polygon fill="#faf089" stroke="transparent" points="1513.5,-334 1513.5,-361 1687.5,-361 1687.5,-334 1513.5,-334"/>
<text text-anchor="start" x="1561" y="-344.8" font-family="Helvetica,sans-Serif" font-weight="bold" font-size="14.00">ChartsTab</text>
<text text-anchor="start" x="1519.5" y="-316.8" font-family="Helvetica,sans-Serif" font-size="14.00">+ setData(DataBundle)</text>
<polygon fill="none" stroke="#d69e2e" points="1512.5,-306 1512.5,-362 1688.5,-362 1688.5,-306 1512.5,-306"/>
</g>
<!-- MainWindow&#45;&gt;ChartsTab -->
<g id="edge13" class="edge">
<title>MainWindow&#45;&gt;ChartsTab</title>
<path fill="none" stroke="#4a5568" d="M1288.06,-324.67C1288.06,-324.67 1502.7,-324.67 1502.7,-324.67"/>
<polygon fill="#4a5568" stroke="#4a5568" points="1502.7,-324.67 1507.5,-321.47 1512.3,-324.67 1507.5,-327.87 1502.7,-324.67"/>
<text text-anchor="middle" x="1357" y="-317" font-family="Helvetica,sans-Serif" font-size="10.00">owns</text>
</g>
<!-- RecommendationsTab -->
<g id="node14" class="node">
<title>RecommendationsTab</title>
<polygon fill="#faf089" stroke="transparent" points="1508.5,-235 1508.5,-262 1692.5,-262 1692.5,-235 1508.5,-235"/>
<text text-anchor="start" x="1514.5" y="-245.8" font-family="Helvetica,sans-Serif" font-weight="bold" font-size="14.00">RecommendationsTab</text>
<text text-anchor="start" x="1514.5" y="-217.8" font-family="Helvetica,sans-Serif" font-size="14.00">+ setData(DataBundle)</text>
<polygon fill="none" stroke="#d69e2e" points="1507.5,-207 1507.5,-263 1693.5,-263 1693.5,-207 1507.5,-207"/>
</g>
<!-- MainWindow&#45;&gt;RecommendationsTab -->
<g id="edge14" class="edge">
<title>MainWindow&#45;&gt;RecommendationsTab</title>
<path fill="none" stroke="#4a5568" d="M1288.06,-235C1288.06,-235 1497.84,-235 1497.84,-235"/>
<polygon fill="#4a5568" stroke="#4a5568" points="1497.84,-235 1502.64,-231.8 1507.44,-235 1502.64,-238.2 1497.84,-235"/>
<text text-anchor="middle" x="1357" y="-248" font-family="Helvetica,sans-Serif" font-size="10.00">owns</text>
</g>
<!-- HistoryModel -->
<g id="node15" class="node">
<title>HistoryModel</title>
<polygon fill="#faf089" stroke="transparent" points="1824.5,-193 1824.5,-220 2177.5,-220 2177.5,-193 1824.5,-193"/>
<text text-anchor="start" x="1948" y="-203.8" font-family="Helvetica,sans-Serif" font-weight="bold" font-size="14.00">HistoryModel</text>
<text text-anchor="start" x="1854" y="-175.8" font-family="Helvetica,sans-Serif" font-size="14.00">+ setTransactions(QVector&lt;Transaction&gt;)</text>
<text text-anchor="start" x="1943" y="-160.8" font-family="Helvetica,sans-Serif" font-size="14.00">+ rowCount() int</text>
<text text-anchor="start" x="1930" y="-145.8" font-family="Helvetica,sans-Serif" font-size="14.00">+ columnCount() int</text>
<text text-anchor="start" x="1903" y="-130.8" font-family="Helvetica,sans-Serif" font-size="14.00">+ data(index, role) QVariant</text>
<text text-anchor="start" x="1830.5" y="-115.8" font-family="Helvetica,sans-Serif" font-size="14.00">+ headerData(section, orientation, role) QVariant</text>
<polygon fill="none" stroke="#d69e2e" points="1823,-105 1823,-221 2178,-221 2178,-105 1823,-105"/>
</g>
<!-- MainWindow&#45;&gt;HistoryModel -->
<g id="edge15" class="edge">
<title>MainWindow&#45;&gt;HistoryModel</title>
<path fill="none" stroke="#4a5568" d="M1223,-205.43C1223,-178.52 1223,-155.25 1223,-155.25 1223,-155.25 1813.01,-155.25 1813.01,-155.25"/>
<polygon fill="#4a5568" stroke="#4a5568" points="1813.01,-155.25 1817.81,-152.05 1822.61,-155.25 1817.81,-158.45 1813.01,-155.25"/>
<text text-anchor="middle" x="1357" y="-145" font-family="Helvetica,sans-Serif" font-size="10.00">owns</text>
</g>
<!-- StatusBanner&#45;&gt;Status -->
<g id="edge16" class="edge">
<title>StatusBanner&#45;&gt;Status</title>
<path fill="none" stroke="#4a5568" d="M2076.27,-66C2076.27,-66 2582.75,-66 2582.75,-66"/>
<polygon fill="#4a5568" stroke="#4a5568" points="2582.75,-68.8 2590.75,-66 2582.75,-63.2 2582.75,-68.8"/>
<text text-anchor="middle" x="2349" y="-76" font-family="Helvetica,sans-Serif" font-size="10.00">displays</text>
</g>
<!-- OverviewTab&#45;&gt;DataBundle -->
<g id="edge17" class="edge">
<title>OverviewTab&#45;&gt;DataBundle</title>
<path fill="none" stroke="#4a5568" d="M1601,-404.88C1601,-390.81 1601,-376.75 1601,-376.75 1601,-376.75 2198.99,-376.75 2198.99,-376.75"/>
<polygon fill="#4a5568" stroke="#4a5568" points="2198.99,-379.55 2206.99,-376.75 2198.99,-373.95 2198.99,-379.55"/>
<text text-anchor="middle" x="2000.5" y="-415" font-family="Helvetica,sans-Serif" font-size="10.00">summarizes</text>
</g>
<!-- ChartsTab&#45;&gt;DataBundle -->
<g id="edge18" class="edge">
<title>ChartsTab&#45;&gt;DataBundle</title>
<path fill="none" stroke="#4a5568" d="M1688.56,-334C1688.56,-334 2198.66,-334 2198.66,-334"/>
<polygon fill="#4a5568" stroke="#4a5568" points="2198.66,-336.8 2206.66,-334 2198.66,-331.2 2198.66,-336.8"/>
<text text-anchor="middle" x="2000.5" y="-335" font-family="Helvetica,sans-Serif" font-size="10.00">charts</text>
</g>
<!-- RecommendationsTab&#45;&gt;DataBundle -->
<g id="edge19" class="edge">
<title>RecommendationsTab&#45;&gt;DataBundle</title>
<path fill="none" stroke="#4a5568" d="M1601,-263C1601,-275.95 1601,-288.5 1601,-288.5 1601,-288.5 2198.99,-288.5 2198.99,-288.5"/>
<polygon fill="#4a5568" stroke="#4a5568" points="2198.99,-291.3 2206.99,-288.5 2198.99,-285.7 2198.99,-291.3"/>
<text text-anchor="middle" x="2000.5" y="-275" font-family="Helvetica,sans-Serif" font-size="10.00">recommends</text>
</g>
<!-- HistoryModel&#45;&gt;Transaction -->
<g id="edge20" class="edge">
<title>HistoryModel&#45;&gt;Transaction</title>
<path fill="none" stroke="#4a5568" d="M2178.27,-198.5C2394.5,-198.5 2731,-198.5 2731,-198.5 2731,-198.5 2731,-240.46 2731,-240.46"/>
<polygon fill="#4a5568" stroke="#4a5568" points="2728.2,-240.46 2731,-248.46 2733.8,-240.46 2728.2,-240.46"/>
<text text-anchor="middle" x="2349" y="-182" font-family="Helvetica,sans-Serif" font-size="10.00">table rows</text>
</g>
</g>
</svg>
